<svg width="56" height="56" viewBox="0 0 56 56" fill="none" xmlns="http://www.w3.org/2000/svg">
<g filter="url(#filter0_f_199_37)">
<path fill-rule="evenodd" clip-rule="evenodd" d="M15.5931 9.49463C15.2172 9.89049 15 10.4954 15 11.2871V39.3682C15 40.1599 15.2172 40.7648 15.6061 41.1448L15.7066 41.2304L31.809 25.4971V25.1456L15.6936 9.40912L15.5931 9.49463Z" fill="url(#paint0_linear_199_37)"/>
<path fill-rule="evenodd" clip-rule="evenodd" d="M37.1676 30.7573L31.7969 25.5097V25.1424L37.1676 19.8948L37.2843 19.9644L43.6371 23.4924C45.4554 24.4931 45.4554 26.1463 43.6371 27.1597L37.2843 30.6876L37.1676 30.7573Z" fill="url(#paint1_linear_199_37)"/>
<path fill-rule="evenodd" clip-rule="evenodd" d="M37.2841 30.6877L31.7967 25.3261L15.5938 41.1576C16.1869 41.7783 17.182 41.8479 18.2937 41.2431L37.2841 30.6877" fill="url(#paint2_linear_199_37)"/>
<path fill-rule="evenodd" clip-rule="evenodd" d="M37.2841 19.9645L18.2937 9.42499C17.182 8.80427 16.1837 8.88978 15.5938 9.51049L31.7967 25.3261L37.2841 19.9645Z" fill="url(#paint3_linear_199_37)"/>
</g>
<g filter="url(#filter1_bdii_199_37)">
<rect x="4" y="2" width="48" height="48" rx="12" fill="white" fill-opacity="0.530029"/>
</g>
<path fill-rule="evenodd" clip-rule="evenodd" d="M15.5734 8.52761C15.2099 8.94987 15 9.59507 15 10.4396V40.3928C15 41.2373 15.2099 41.8825 15.5859 42.2878L15.683 42.3791L31.2487 25.5969V25.2219L15.6705 8.4364L15.5734 8.52761Z" fill="url(#paint4_linear_199_37)"/>
<path fill-rule="evenodd" clip-rule="evenodd" d="M36.428 31.2079L31.2363 25.6104V25.2186L36.428 19.6212L36.5408 19.6955L42.6819 23.4586C44.4396 24.5261 44.4396 26.2894 42.6819 27.3704L36.5408 31.1336L36.428 31.2079Z" fill="url(#paint5_linear_199_37)"/>
<path fill-rule="evenodd" clip-rule="evenodd" d="M36.5415 31.1335L31.237 25.4145L15.5742 42.3014C16.1476 42.9635 17.1095 43.0378 18.1842 42.3926L36.5415 31.1335Z" fill="url(#paint6_linear_199_37)"/>
<path fill-rule="evenodd" clip-rule="evenodd" d="M36.5415 19.6955L18.1842 8.45332C17.1095 7.79122 16.1445 7.88243 15.5742 8.54453L31.237 25.4145L36.5415 19.6955Z" fill="url(#paint7_linear_199_37)"/>
<defs>
<filter id="filter0_f_199_37" x="12" y="6" width="36" height="38.6617" filterUnits="userSpaceOnUse" color-interpolation-filters="sRGB">
<feFlood flood-opacity="0" result="BackgroundImageFix"/>
<feBlend mode="normal" in="SourceGraphic" in2="BackgroundImageFix" result="shape"/>
<feGaussianBlur stdDeviation="1.5" result="effect1_foregroundBlur_199_37"/>
</filter>
<filter id="filter1_bdii_199_37" x="-6.87313" y="-8.87313" width="69.7463" height="69.7463" filterUnits="userSpaceOnUse" color-interpolation-filters="sRGB">
<feFlood flood-opacity="0" result="BackgroundImageFix"/>
<feGaussianBlur in="BackgroundImageFix" stdDeviation="5.43656"/>
<feComposite in2="SourceAlpha" operator="in" result="effect1_backgroundBlur_199_37"/>
<feColorMatrix in="SourceAlpha" type="matrix" values="0 0 0 0 0 0 0 0 0 0 0 0 0 0 0 0 0 0 127 0" result="hardAlpha"/>
<feOffset dy="2"/>
<feGaussianBlur stdDeviation="2"/>
<feColorMatrix type="matrix" values="0 0 0 0 0 0 0 0 0 0 0 0 0 0 0 0 0 0 0.12 0"/>
<feBlend mode="normal" in2="effect1_backgroundBlur_199_37" result="effect2_dropShadow_199_37"/>
<feBlend mode="normal" in="SourceGraphic" in2="effect2_dropShadow_199_37" result="shape"/>
<feColorMatrix in="SourceAlpha" type="matrix" values="0 0 0 0 0 0 0 0 0 0 0 0 0 0 0 0 0 0 127 0" result="hardAlpha"/>
<feOffset dx="8" dy="8"/>
<feGaussianBlur stdDeviation="12"/>
<feComposite in2="hardAlpha" operator="arithmetic" k2="-1" k3="1"/>
<feColorMatrix type="matrix" values="0 0 0 0 1 0 0 0 0 1 0 0 0 0 1 0 0 0 1 0"/>
<feBlend mode="normal" in2="shape" result="effect3_innerShadow_199_37"/>
<feColorMatrix in="SourceAlpha" type="matrix" values="0 0 0 0 0 0 0 0 0 0 0 0 0 0 0 0 0 0 127 0" result="hardAlpha"/>
<feOffset dx="-4" dy="-4"/>
<feGaussianBlur stdDeviation="12"/>
<feComposite in2="hardAlpha" operator="arithmetic" k2="-1" k3="1"/>
<feColorMatrix type="matrix" values="0 0 0 0 1 0 0 0 0 1 0 0 0 0 1 0 0 0 0.04 0"/>
<feBlend mode="normal" in2="effect3_innerShadow_199_37" result="effect4_innerShadow_199_37"/>
</filter>
<linearGradient id="paint0_linear_199_37" x1="24.7356" y1="-9.66254" x2="-0.976297" y2="-2.65255" gradientUnits="userSpaceOnUse">
<stop stop-color="#00A0FF"/>
<stop offset="0.00657" stop-color="#00A1FF"/>
<stop offset="0.2601" stop-color="#00BEFF"/>
<stop offset="0.5122" stop-color="#00D2FF"/>
<stop offset="0.7604" stop-color="#00DFFF"/>
<stop offset="1" stop-color="#00E3FF"/>
</linearGradient>
<linearGradient id="paint1_linear_199_37" x1="46.0084" y1="12.3898" x2="14.5589" y2="12.3898" gradientUnits="userSpaceOnUse">
<stop stop-color="#FFE000"/>
<stop offset="0.4087" stop-color="#FFBD00"/>
<stop offset="0.7754" stop-color="#FFA500"/>
<stop offset="1" stop-color="#FF9C00"/>
</linearGradient>
<linearGradient id="paint2_linear_199_37" x1="15.1128" y1="17.1049" x2="-4.89176" y2="51.5647" gradientUnits="userSpaceOnUse">
<stop stop-color="#FF3A44"/>
<stop offset="1" stop-color="#C31162"/>
</linearGradient>
<linearGradient id="paint3_linear_199_37" x1="2.94057" y1="5.12537" x2="11.8642" y2="20.5156" gradientUnits="userSpaceOnUse">
<stop stop-color="#32A071"/>
<stop offset="0.0685" stop-color="#2DA771"/>
<stop offset="0.4762" stop-color="#15CF74"/>
<stop offset="0.8009" stop-color="#06E775"/>
<stop offset="1" stop-color="#00F076"/>
</linearGradient>
<linearGradient id="paint4_linear_199_37" x1="24.4111" y1="-11.9067" x2="-0.754921" y2="-5.68878" gradientUnits="userSpaceOnUse">
<stop stop-color="#00A0FF"/>
<stop offset="0.00657" stop-color="#00A1FF"/>
<stop offset="0.2601" stop-color="#00BEFF"/>
<stop offset="0.5122" stop-color="#00D2FF"/>
<stop offset="0.7604" stop-color="#00DFFF"/>
<stop offset="1" stop-color="#00E3FF"/>
</linearGradient>
<linearGradient id="paint5_linear_199_37" x1="44.9741" y1="11.6158" x2="14.5729" y2="11.6158" gradientUnits="userSpaceOnUse">
<stop stop-color="#FFE000"/>
<stop offset="0.4087" stop-color="#FFBD00"/>
<stop offset="0.7754" stop-color="#FFA500"/>
<stop offset="1" stop-color="#FF9C00"/>
</linearGradient>
<linearGradient id="paint6_linear_199_37" x1="15.1093" y1="16.6452" x2="-7.21202" y2="51.4911" gradientUnits="userSpaceOnUse">
<stop stop-color="#FF3A44"/>
<stop offset="1" stop-color="#C31162"/>
</linearGradient>
<linearGradient id="paint7_linear_199_37" x1="3.34281" y1="3.86706" x2="13.3009" y2="19.4312" gradientUnits="userSpaceOnUse">
<stop stop-color="#32A071"/>
<stop offset="0.0685" stop-color="#2DA771"/>
<stop offset="0.4762" stop-color="#15CF74"/>
<stop offset="0.8009" stop-color="#06E775"/>
<stop offset="1" stop-color="#00F076"/>
</linearGradient>
</defs>
</svg>
